<?xml version="1.0" encoding="UTF-8"?>
<svg width="151px" height="164px" viewBox="0 0 151 164" version="1.1" xmlns="http://www.w3.org/2000/svg" xmlns:xlink="http://www.w3.org/1999/xlink">
    <!-- Generator: Sketch 41.1 (35376) - http://www.bohemiancoding.com/sketch -->
    <title>telephone</title>
    <desc>Created with Sketch.</desc>
    <defs></defs>
    <g id="Page-1" stroke="none" stroke-width="1" fill="none" fill-rule="evenodd">
        <g id="Open-zaak-Curaned" transform="translate(-1154.000000, -306.000000)">
            <g id="Telefoonboek" transform="translate(925.000000, 294.000000)">
                <g id="Shape">
                    <g id="telephone" transform="translate(229.000000, 12.000000)">
                        <path d="M194.983759,78.4136814 L245.454416,78.4136814 C245.454416,9.44927879 183.4745,0.153572761 122.851426,0.153572761 C62.2235735,0.153572761 0.248435644,9.44927879 0.248435644,78.4136814 L50.3273283,78.4136814 C54.2019688,33.0478542 83.1208332,35.6117073 124.165268,36.0011533 C165.553691,36.3952356 191.481772,33.8962902 194.983759,78.4136814 Z" id="Shape" fill="#1CCEEE"></path>
                        <path d="M25.2783267,100.584288 C37.5711135,100.584288 47.7999733,101.298272 50.074115,89.5638924 C50.3798819,87.9690181 50.5566535,86.1608758 50.5566535,84.0699215 L49.9737852,84.0699215 L0,84.0699215 C0,101.525449 11.3181546,100.584288 25.2783267,100.584288 L25.2783267,100.584288 Z" id="Shape" fill="#3DAFEB"></path>
                        <path d="M170.651399,72.1825448 L170.651399,65.2466963 C170.651399,62.1450368 166.967863,61.9503137 162.41958,61.9503137 L154.990398,61.9503137 C150.446893,61.9503137 146.763356,62.1450368 146.763356,65.2466963 L146.763356,71.2228385 L146.763356,75.8591008 L94.2096626,75.8591008 L94.2096626,71.2228385 L94.2096626,65.2466963 C94.2096626,62.1450368 90.5261264,61.9503137 85.9826207,61.9503137 L78.5486618,61.9503137 C74.0051561,61.9503137 70.32162,62.1450368 70.32162,65.2466963 L70.32162,72.1825448 L70.32162,78.2375034 C58.348933,90.3103306 19.172543,141.703299 17.7488157,147.925163 L17.7679261,189.442892 C17.7679261,193.277081 20.9832567,196.397286 24.9343389,196.397286 L216.03868,196.397286 C219.989762,196.397286 223.205093,193.277081 223.205093,189.442892 L223.205093,147.716531 C221.795698,141.675481 182.628864,90.3056943 170.651399,78.2328671 L170.651399,72.1825448 L170.651399,72.1825448 Z M91.6201988,153.511859 C87.7742239,153.511859 84.6544455,150.489016 84.6544455,146.752189 C84.6544455,143.015361 87.7742239,139.992518 91.6201988,139.992518 C95.4661736,139.992518 98.585952,143.015361 98.585952,146.752189 C98.585952,150.489016 95.4661736,153.511859 91.6201988,153.511859 L91.6201988,153.511859 Z M91.6201988,130.330547 C87.7742239,130.330547 84.6544455,127.307704 84.6544455,123.570877 C84.6544455,119.834049 87.7742239,116.811206 91.6201988,116.811206 C95.4661736,116.811206 98.585952,119.834049 98.585952,123.570877 C98.585952,127.307704 95.4661736,130.330547 91.6201988,130.330547 L91.6201988,130.330547 Z M91.6201988,107.153872 C87.7742239,107.153872 84.6544455,104.131029 84.6544455,100.394201 C84.6544455,96.66201 87.7742239,93.6345307 91.6201988,93.6345307 C95.4661736,93.6345307 98.585952,96.66201 98.585952,100.394201 C98.585952,104.131029 95.4661736,107.153872 91.6201988,107.153872 L91.6201988,107.153872 Z M120.28585,153.511859 C116.439875,153.511859 113.320097,150.489016 113.320097,146.752189 C113.320097,143.015361 116.439875,139.992518 120.28585,139.992518 C124.136602,139.992518 127.251603,143.015361 127.251603,146.752189 C127.251603,150.489016 124.136602,153.511859 120.28585,153.511859 L120.28585,153.511859 Z M120.28585,130.330547 C116.439875,130.330547 113.320097,127.307704 113.320097,123.570877 C113.320097,119.834049 116.439875,116.811206 120.28585,116.811206 C124.136602,116.811206 127.251603,119.834049 127.251603,123.570877 C127.251603,127.307704 124.136602,130.330547 120.28585,130.330547 L120.28585,130.330547 Z M120.28585,107.153872 C116.439875,107.153872 113.320097,104.131029 113.320097,100.394201 C113.320097,96.66201 116.439875,93.6345307 120.28585,93.6345307 C124.136602,93.6345307 127.251603,96.66201 127.251603,100.394201 C127.251603,104.131029 124.136602,107.153872 120.28585,107.153872 L120.28585,107.153872 Z M148.951501,153.511859 C145.100749,153.511859 141.985748,150.489016 141.985748,146.752189 C141.985748,143.015361 145.100749,139.992518 148.951501,139.992518 C152.802254,139.992518 155.917254,143.015361 155.917254,146.752189 C155.917254,150.489016 152.802254,153.511859 148.951501,153.511859 L148.951501,153.511859 Z M148.951501,130.330547 C145.100749,130.330547 141.985748,127.307704 141.985748,123.570877 C141.985748,119.834049 145.100749,116.811206 148.951501,116.811206 C152.802254,116.811206 155.917254,119.834049 155.917254,123.570877 C155.917254,127.307704 152.802254,130.330547 148.951501,130.330547 L148.951501,130.330547 Z M148.951501,107.153872 C145.100749,107.153872 141.985748,104.131029 141.985748,100.394201 C141.985748,96.66201 145.100749,93.6345307 148.951501,93.6345307 C152.802254,93.6345307 155.917254,96.66201 155.917254,100.394201 C155.917254,104.131029 152.802254,107.153872 148.951501,107.153872 L148.951501,107.153872 Z" id="Shape" fill="#1CCEEE"></path>
                    </g>
                </g>
            </g>
        </g>
    </g>
</svg>