<?xml version="1.0" encoding="utf-8"?>
<svg width="24px" height="24px" viewBox="0 0 24 24" version="1.1" xmlns="http://www.w3.org/2000/svg">
  <title>Shape</title>
  <desc>Created with Sketch.</desc>
  <g id="Page-1" stroke="none" stroke-width="1" fill="none" fill-rule="evenodd" transform="matrix(1.042053, 0, 0, 1.042053, 0.084107, 0.084107)">
    <g id="Open-zaak-Curaned" transform="translate(-468.000000, -1491.000000)" fill="#949FB3">
      <g id="Alert-Copy" transform="translate(125.000000, 937.000000)">
        <path d="M363.761727,571.199212 C363.761653,571.199138 363.761578,571.199064 363.761504,571.199027 L357.997598,565.435009 L363.761504,559.670991 C363.761578,559.670916 363.761653,559.670879 363.761727,559.670805 C363.823774,559.608721 363.868639,559.536209 363.897399,559.458985 C363.976182,559.247906 363.931243,559.001017 363.761504,558.831279 L361.038676,556.108451 C360.868938,555.93875 360.622123,555.893847 360.411008,555.97263 C360.33382,556.00139 360.261271,556.046256 360.19915,556.108265 C360.19915,556.10834 360.199076,556.108377 360.199002,556.108451 L354.435021,561.872506 L348.67104,556.108488 C348.670966,556.108414 348.670928,556.108377 348.670854,556.108302 C348.60877,556.046293 348.536258,556.001427 348.459071,555.972668 C348.247918,555.893847 348.001104,555.938787 347.831365,556.108488 L345.1085,558.831353 C344.938762,559.001092 344.893859,559.247943 344.972643,559.459022 C345.001439,559.536209 345.046305,559.608795 345.108315,559.670842 C345.108389,559.670879 345.108426,559.670954 345.1085,559.671028 L350.872518,565.435009 L345.1085,571.199064 C345.108463,571.199138 345.108389,571.199175 345.108352,571.199249 C345.046342,571.261333 345.001477,571.333845 344.972643,571.411033 C344.893822,571.622111 344.938762,571.869 345.1085,572.038738 L347.831365,574.761566 C348.001141,574.931305 348.247956,574.976207 348.459071,574.897424 C348.536258,574.868627 348.608807,574.823762 348.670891,574.761752 C348.670928,574.761678 348.671003,574.761641 348.671077,574.761566 L354.435058,568.997548 L360.199039,574.761566 C360.199113,574.761603 360.199187,574.761678 360.199261,574.761715 C360.261382,574.823762 360.333857,574.868627 360.411045,574.897424 C360.62216,574.976207 360.869049,574.931305 361.038713,574.761566 L363.761541,572.038701 C363.93128,571.868963 363.976219,571.622074 363.897436,571.410996 C363.868639,571.333808 363.823774,571.261296 363.761727,571.199212 L363.761727,571.199212 Z" id="Shape" transform="translate(354.435027, 565.435027) rotate(-315.000000) translate(-354.435027, -565.435027) "/>
      </g>
    </g>
  </g>
</svg>