<?xml version="1.0" encoding="utf-8"?>
<svg width="24px" height="24px" viewBox="0 0 24 24" version="1.1" xmlns="http://www.w3.org/2000/svg">
  <title>black-settings-button</title>
  <desc>Created with Sketch.</desc>
  <g id="Page-1" stroke="none" stroke-width="1" fill="none" fill-rule="evenodd" transform="matrix(0.783791, 0, 0, 0.783791, 0, 0)">
    <g id="Open-zaak-Curaned" transform="translate(-1203.000000, -18.000000)" fill="#949FB3">
      <g id="nav" transform="translate(125.000000, 8.000000)">
        <g id="black-settings-button" transform="translate(1078.000000, 10.000000)">
          <g id="Capa_1">
            <path d="M30.6204082,15.3102041 C30.6204082,14.1714286 29.7998571,12.9573673 28.7882449,12.5992857 C27.7766327,12.2412041 26.7960204,11.3643469 26.5106939,10.6728571 C26.2253673,9.98136735 26.2993878,8.66544898 26.7612245,7.69622449 C27.2224286,6.727 26.9427959,5.28771429 26.1374286,4.48234694 C25.3326939,3.67697959 23.8934082,3.39797959 22.923551,3.85918367 C21.9543265,4.32038776 20.6403061,4.39567347 19.9507143,4.11034694 C19.2611224,3.82502041 18.3836327,2.84314286 18.0242857,1.83153061 C17.6643061,0.819918367 16.4489796,0 15.3102041,0 C14.1714286,0 12.956102,0.819918367 12.5961224,1.83153061 C12.2361429,2.84314286 11.3592857,3.82502041 10.6696939,4.11034694 C9.98010204,4.39567347 8.66544898,4.32038776 7.69622449,3.85918367 C6.727,3.39797959 5.28771429,3.67697959 4.48234694,4.48234694 C3.67697959,5.28771429 3.39797959,6.72636735 3.85918367,7.69622449 C4.32038776,8.66608163 4.39377551,9.98073469 4.10718367,10.6715918 C3.82059184,11.362449 2.84314286,12.2412041 1.83153061,12.5992857 C0.819918367,12.9573673 0,14.1714286 0,15.3102041 C0,16.4489796 0.819918367,17.6643061 1.83153061,18.0242857 C2.84314286,18.3836327 3.82185714,19.2623878 4.10844898,19.9519796 C4.39504082,20.6409388 4.32038776,21.9549592 3.85918367,22.9241837 C3.39797959,23.8934082 3.67697959,25.3326939 4.48234694,26.1380612 C5.28771429,26.9427959 6.72636735,27.2224286 7.69622449,26.7612245 C8.66608163,26.3000204 9.98010204,26.2253673 10.6696939,26.5113265 C11.3599184,26.7972857 12.2361429,27.7816939 12.5961224,28.7914082 C12.956102,29.8011224 14.1714286,30.6204082 15.3102041,30.6204082 C16.4489796,30.6204082 17.6643061,29.8011224 18.0242857,28.7914082 C18.3836327,27.7816939 19.2598571,26.798551 19.949449,26.5113265 C20.6390408,26.2247347 21.9549592,26.3000204 22.923551,26.7618571 C23.8934082,27.2230612 25.3326939,26.9434286 26.1374286,26.1386939 C26.9427959,25.3333265 27.2224286,23.8940408 26.7612245,22.9248163 C26.3000204,21.9549592 26.224102,20.6409388 26.5094286,19.9513469 C26.7947551,19.2617551 27.7772653,18.3842653 28.7888776,18.0249184 C29.8004898,17.6643061 30.6204082,16.4489796 30.6204082,15.3102041 L30.6204082,15.3102041 Z M15.3102041,20.9281633 C12.2038776,20.9281633 9.6922449,18.4165306 9.6922449,15.3165306 C9.6922449,12.2102041 12.2038776,9.69857143 15.3102041,9.69857143 C18.4095714,9.69857143 20.9218367,12.2102041 20.9218367,15.3165306 C20.9218367,18.4165306 18.4102041,20.9281633 15.3102041,20.9281633 L15.3102041,20.9281633 Z" id="Shape"/>
          </g>
        </g>
      </g>
    </g>
  </g>
</svg>