<?xml version="1.0" encoding="utf-8"?>
<svg width="24px" height="24px" viewBox="0 0 24 24" version="1.1" xmlns="http://www.w3.org/2000/svg">
  <title>calendar</title>
  <desc>Created with Sketch.</desc>
  <g id="Page-1" stroke="none" stroke-width="1" fill="none" fill-rule="evenodd" transform="matrix(0.841619, 0, 0, 0.841619, 0.000767, 0)">
    <g id="Open-zaak-Curaned" transform="translate(-137.000000, -608.000000)" fill="#949FB3">
      <g id="Evenementen" transform="translate(125.000000, 597.000000)">
        <g id="Group-2-Copy-2" transform="translate(1.000000, 1.000000)">
          <g id="calendar" transform="translate(11.000000, 10.000000)">
            <g id="Capa_1">
              <g id="Group">
                <path d="M28.4987833,21.3241833 C28.4427167,21.1468 28.2890167,21.01775 28.10535,20.99165 L24.3464667,20.4653 L22.6683333,17.1883 C22.5030333,16.8654333 21.9733,16.8654333 21.8084833,17.1883 L20.13035,20.4653 L16.3714667,20.99165 C16.1873167,21.01775 16.0341,21.1463167 15.9780333,21.3241833 C15.9219667,21.50205 15.9722333,21.6953833 16.10805,21.8225 L18.8171333,24.3682167 L18.17865,27.9579333 C18.14675,28.1382167 18.21925,28.3214 18.3661833,28.4306333 C18.5136,28.54035 18.7098333,28.5572667 18.8732,28.47365 L22.2391333,26.76845 L25.6050667,28.47365 C25.6741833,28.5089333 25.7491,28.52585 25.8235333,28.52585 C25.9255167,28.52585 26.0270167,28.49395 26.1120833,28.4306333 C26.2590167,28.3214 26.3315167,28.1387 26.2996167,27.9579333 L25.6611333,24.3682167 L28.3702167,21.8225 C28.5041,21.6953833 28.55485,21.5015667 28.4987833,21.3241833 L28.4987833,21.3241833 Z M24.8070833,23.8428333 C24.6881833,23.9544833 24.6335667,24.1188167 24.6620833,24.2792833 L25.17635,27.173 L22.45615,25.7945333 C22.3870333,25.7597333 22.3126,25.7423333 22.2376833,25.7423333 C22.1627667,25.7423333 22.08785,25.7597333 22.0192167,25.7945333 L19.2990167,27.173 L19.8132833,24.2792833 C19.8422833,24.1188167 19.7871833,23.9544833 19.6682833,23.8428333 L17.5034333,21.80945 L20.5121833,21.3879833 C20.6678167,21.3662333 20.8036333,21.27005 20.8751667,21.1298833 L22.2372,18.4696167 L23.5992333,21.1298833 C23.6707667,21.27005 23.8065833,21.3662333 23.9622167,21.3879833 L26.9709667,21.80945 L24.8070833,23.8428333 L24.8070833,23.8428333 Z" id="Shape"/>
                <path d="M17.4048333,15.4666667 L21.7548333,15.4666667 L21.7548333,10.15 L17.4048333,10.15 L16.4381667,10.15 L13.0548333,10.15 L12.0881667,10.15 L8.70483333,10.15 L7.73816667,10.15 L3.38816667,10.15 L3.38816667,14.5 L3.38816667,15.4666667 L3.38816667,18.85 L3.38816667,19.8166667 L3.38816667,24.1666667 L7.73816667,24.1666667 L8.70483333,24.1666667 L13.0548333,24.1666667 L13.0548333,19.8166667 L17.4048333,19.8166667 L17.4048333,15.4666667 L17.4048333,15.4666667 Z M17.4048333,11.1166667 L20.7881667,11.1166667 L20.7881667,14.5 L17.4048333,14.5 L17.4048333,11.1166667 L17.4048333,11.1166667 Z M13.0548333,11.1166667 L16.4381667,11.1166667 L16.4381667,14.5 L13.0548333,14.5 L13.0548333,11.1166667 L13.0548333,11.1166667 Z M8.70483333,11.1166667 L12.0881667,11.1166667 L12.0881667,14.5 L8.70483333,14.5 L8.70483333,11.1166667 L8.70483333,11.1166667 Z M12.0881667,18.85 L8.70483333,18.85 L8.70483333,15.4666667 L12.0881667,15.4666667 L12.0881667,18.85 L12.0881667,18.85 Z M4.35483333,11.1166667 L7.73816667,11.1166667 L7.73816667,14.5 L4.35483333,14.5 L4.35483333,11.1166667 L4.35483333,11.1166667 Z M4.35483333,15.4666667 L7.73816667,15.4666667 L7.73816667,18.85 L4.35483333,18.85 L4.35483333,15.4666667 L4.35483333,15.4666667 Z M7.73816667,23.2 L4.35483333,23.2 L4.35483333,19.8166667 L7.73816667,19.8166667 L7.73816667,23.2 L7.73816667,23.2 Z M12.0881667,23.2 L8.70483333,23.2 L8.70483333,19.8166667 L12.0881667,19.8166667 L12.0881667,23.2 L12.0881667,23.2 Z M16.4381667,18.85 L13.0548333,18.85 L13.0548333,15.4666667 L16.4381667,15.4666667 L16.4381667,18.85 L16.4381667,18.85 Z" id="Shape"/>
                <path d="M12.5715,26.5833333 L0.9715,26.5833333 L0.9715,7.73333333 L24.1715,7.73333333 L24.1715,15.95 C24.1715,16.2172833 24.38755,16.4333333 24.6548333,16.4333333 C24.9221167,16.4333333 25.1381667,16.2172833 25.1381667,15.95 L25.1381667,7.25 L25.1381667,2.41666667 C25.1381667,2.14938333 24.9221167,1.93333333 24.6548333,1.93333333 L22.2381667,1.93333333 L22.2381667,0.483333333 C22.2381667,0.21605 22.0221167,0 21.7548333,0 L18.3715,0 C18.1042167,0 17.8881667,0.21605 17.8881667,0.483333333 L17.8881667,1.93333333 L7.25483333,1.93333333 L7.25483333,0.483333333 C7.25483333,0.21605 7.03878333,0 6.7715,0 L3.38816667,0 C3.12088333,0 2.90483333,0.21605 2.90483333,0.483333333 L2.90483333,1.93333333 L0.488166667,1.93333333 C0.220883333,1.93333333 0.00483333333,2.14938333 0.00483333333,2.41666667 L0.00483333333,7.25 L0.00483333333,27.0666667 C0.00483333333,27.33395 0.220883333,27.55 0.488166667,27.55 L12.5715,27.55 C12.8387833,27.55 13.0548333,27.33395 13.0548333,27.0666667 C13.0548333,26.7993833 12.8383,26.5833333 12.5715,26.5833333 L12.5715,26.5833333 Z M18.8548333,0.966666667 L21.2715,0.966666667 L21.2715,2.41666667 L21.2715,3.86666667 L18.8548333,3.86666667 L18.8548333,2.41666667 L18.8548333,0.966666667 L18.8548333,0.966666667 Z M3.8715,0.966666667 L6.28816667,0.966666667 L6.28816667,2.41666667 L6.28816667,3.86666667 L3.8715,3.86666667 L3.8715,2.41666667 L3.8715,0.966666667 L3.8715,0.966666667 Z M0.9715,2.9 L2.90483333,2.9 L2.90483333,4.35 C2.90483333,4.61728333 3.12088333,4.83333333 3.38816667,4.83333333 L6.7715,4.83333333 C7.03878333,4.83333333 7.25483333,4.61728333 7.25483333,4.35 L7.25483333,2.9 L17.8881667,2.9 L17.8881667,4.35 C17.8881667,4.61728333 18.1042167,4.83333333 18.3715,4.83333333 L21.7548333,4.83333333 C22.0221167,4.83333333 22.2381667,4.61728333 22.2381667,4.35 L22.2381667,2.9 L24.1715,2.9 L24.1715,6.76666667 L0.9715,6.76666667 L0.9715,2.9 L0.9715,2.9 Z" id="Shape"/>
              </g>
            </g>
          </g>
        </g>
      </g>
    </g>
  </g>
</svg>