<?xml version="1.0" encoding="utf-8"?>
<svg width="24px" height="24px" viewBox="0 0 24 24" version="1.1" xmlns="http://www.w3.org/2000/svg">
  <title>Shape</title>
  <desc>Created with Sketch.</desc>
  <g id="Page-1" stroke="none" stroke-width="1" fill="none" fill-rule="evenodd" transform="matrix(1.263158, 0, 0, 1.263158, 0, 0)">
    <g id="Open-zaak-Curaned" transform="translate(-470.000000, -614.000000)" fill="#949FB3">
      <g id="Evenementen" transform="translate(125.000000, 597.000000)">
        <path d="M363.8267,32.2641824 C363.826626,32.2641082 363.826552,32.2640339 363.826478,32.2639968 L358.062571,26.4999788 L363.826478,20.7359609 C363.826552,20.7358866 363.826626,20.7358495 363.8267,20.7357753 C363.888747,20.6736913 363.933612,20.6011795 363.962372,20.5239548 C364.041156,20.3128766 363.996216,20.0659877 363.826478,19.8962493 L361.103649,17.1734211 C360.933911,17.0037198 360.687096,16.9588174 360.475981,17.0376007 C360.398793,17.0663605 360.326245,17.1112257 360.264123,17.1732355 C360.264123,17.1733098 360.264049,17.1733469 360.263975,17.1734211 L354.499994,22.9374762 L348.736013,17.1734582 C348.735939,17.173384 348.735902,17.1733469 348.735828,17.1732726 C348.673744,17.1112628 348.601232,17.0663976 348.524044,17.0376378 C348.312892,16.9588174 348.066077,17.0037569 347.896339,17.1734582 L345.173473,19.8963235 C345.003735,20.0660619 344.958833,20.3129137 345.037616,20.523992 C345.066413,20.6011795 345.111278,20.6737655 345.173288,20.7358124 C345.173362,20.7358495 345.173399,20.7359237 345.173473,20.735998 L350.937491,26.4999788 L345.173473,32.2640339 C345.173436,32.2641082 345.173362,32.2641453 345.173325,32.2642195 C345.111315,32.3263035 345.06645,32.3988153 345.037616,32.4760028 C344.958796,32.6870811 345.003735,32.93397 345.173473,33.1037084 L347.896339,35.8265366 C348.066114,35.996275 348.312929,36.0411774 348.524044,35.9623941 C348.601232,35.9335972 348.673781,35.888732 348.735865,35.8267221 C348.735902,35.8266479 348.735976,35.8266108 348.73605,35.8265366 L354.500031,30.0625186 L360.264012,35.8265366 C360.264086,35.8265737 360.264161,35.8266479 360.264235,35.826685 C360.326356,35.888732 360.398831,35.9335972 360.476018,35.9623941 C360.687134,36.0411774 360.934022,35.996275 361.103687,35.8265366 L363.826515,33.1036713 C363.996253,32.9339329 364.041193,32.687044 363.962409,32.4759657 C363.933612,32.3987782 363.888747,32.3262664 363.8267,32.2641824 L363.8267,32.2641824 Z" id="Shape"/>
      </g>
    </g>
  </g>
</svg>