<?xml version="1.0" encoding="utf-8"?>
<svg width="24px" height="24px" viewBox="0 0 24 24" version="1.1" xmlns="http://www.w3.org/2000/svg">
  <title>external-link</title>
  <desc>Created with Sketch.</desc>
  <g id="Page-1" stroke="none" stroke-width="1" fill="none" fill-rule="evenodd" transform="matrix(0.907667, 0, 0, 0.907667, -0.499538, 0)">
    <g id="Open-zaak-Curaned" transform="translate(-538.000000, -1512.000000)" fill="#949FB3">
      <g id="external-link" transform="translate(538.000000, 1512.000000)">
        <g id="Capa_1">
          <g id="Group">
            <path d="M25.3620009,0 L16.2702705,0 C15.3715745,0 14.6405109,0.731156728 14.6405109,1.62975961 C14.6405109,2.5283625 15.3715745,3.25951923 16.2702705,3.25951923 L21.4274819,3.25951923 L12.8246793,11.8622286 C12.5167013,12.1700204 12.3472063,12.5792297 12.3472063,13.0147015 C12.3472063,13.4501733 12.5166082,13.8592895 12.8244931,14.1668019 C13.1323779,14.4749661 13.5414942,14.6445543 13.9769659,14.6445543 C14.4122514,14.6445543 14.8215539,14.4750593 15.1295319,14.1670813 L23.7322413,5.56427871 L23.7322413,10.72149 C23.7322413,11.6200929 24.4633981,12.3512497 25.3620009,12.3512497 C26.2606038,12.3512497 26.9917606,11.6200929 26.9917606,10.72149 L26.9917606,1.62975961 C26.9917606,0.731156728 26.2606038,0 25.3620009,0 L25.3620009,0 Z" id="Shape"/>
            <path d="M19.2820663,23.6475326 L3.34422794,23.6475326 L3.34422794,7.70969427 L15.3309702,7.70969427 L18.1248438,4.91582064 L1.94729113,4.91582064 C1.17580949,4.91582064 0.550354313,5.54127582 0.550354313,6.31275746 L0.550354313,25.0444694 C0.550354313,25.8159511 1.17580949,26.4414063 1.94729113,26.4414063 L20.6790031,26.4414063 C21.4504847,26.4414063 22.0759399,25.8159511 22.0759399,25.0444694 L22.0759399,8.86691673 L19.2820663,11.6607904 L19.2820663,23.6475326 L19.2820663,23.6475326 Z" id="Shape"/>
          </g>
        </g>
      </g>
    </g>
  </g>
</svg>