<?xml version="1.0" encoding="utf-8"?>
<svg width="24px" height="24px" viewBox="0 0 24 24" version="1.1" xmlns="http://www.w3.org/2000/svg">
  <title>Capa_1</title>
  <desc>Created with Sketch.</desc>
  <g id="Page-1" stroke="none" stroke-width="1" fill="none" fill-rule="evenodd" transform="matrix(0.836572, 0, 0, 0.847063, -0.000006, 1.499999)">
    <g id="Open-zaak-Curaned" transform="translate(-936.000000, -1343.000000)" fill="#949FB3">
      <g id="Capa_1" transform="translate(936.000000, 1343.000000)">
        <path d="M17.312284,4.25514706 C18.6387654,5.10919118 19.5689136,6.55441176 19.7382593,8.23198529 C20.2792346,8.49154412 20.879642,8.64080882 21.5162099,8.64080882 C23.8401481,8.64080882 25.723716,6.70661765 25.723716,4.32058824 C25.723716,1.93419118 23.8401481,0 21.5162099,0 C19.2144691,0.000735294118 17.3473704,1.90036765 17.312284,4.25514706 L17.312284,4.25514706 Z M14.5558519,13.1014706 C16.8797901,13.1014706 18.763358,11.1669118 18.763358,8.78088235 C18.763358,6.39485294 16.8794321,4.46066176 14.5558519,4.46066176 C12.2322716,4.46066176 10.3476296,6.39522059 10.3476296,8.78125 C10.3476296,11.1672794 12.2322716,13.1014706 14.5558519,13.1014706 L14.5558519,13.1014706 Z M16.3406049,13.3959559 L12.7703827,13.3959559 C9.79985185,13.3959559 7.38318519,15.8779412 7.38318519,18.9283088 L7.38318519,23.4117647 L7.39428395,23.4819853 L7.69502469,23.5786765 C10.5298642,24.4882353 12.992716,24.7915441 15.0198519,24.7915441 C18.9792469,24.7915441 21.2741852,23.6323529 21.4156049,23.5584559 L21.6966543,23.4125 L21.7267284,23.4125 L21.7267284,18.9283088 C21.7278025,15.8779412 19.3111358,13.3959559 16.3406049,13.3959559 L16.3406049,13.3959559 Z M23.301679,8.93566176 L19.7590247,8.93566176 C19.720716,10.3911765 19.1156543,11.7018382 18.1586543,12.6444853 C20.7990864,13.4507353 22.7309877,15.9650735 22.7309877,18.9349265 L22.7309877,20.3165441 C26.2288889,20.1849265 28.2445679,19.1669118 28.3773951,19.0985294 L28.6584444,18.9522059 L28.6885185,18.9522059 L28.6885185,14.4672794 C28.6885185,11.4172794 26.2718519,8.93566176 23.301679,8.93566176 L23.301679,8.93566176 Z M7.17302469,8.64154412 C7.99612346,8.64154412 8.76193827,8.39485294 9.41067901,7.97463235 C9.61690123,6.59338235 10.337963,5.38639706 11.368,4.56433824 C11.3722963,4.48345588 11.3798148,4.40330882 11.3798148,4.32169118 C11.3798148,1.93529412 9.49588889,0.00110294118 7.17302469,0.00110294118 C4.8487284,0.00110294118 2.96551852,1.93529412 2.96551852,4.32169118 C2.96551852,6.70698529 4.8487284,8.64154412 7.17302469,8.64154412 L7.17302469,8.64154412 Z M10.9516173,12.6444853 C9.9992716,11.7066176 9.39635802,10.4029412 9.35232099,8.95625 C9.22092593,8.94632353 9.09096296,8.93566176 8.95706173,8.93566176 L5.38719753,8.93566176 C2.41666667,8.93566176 0,11.4172794 0,14.4672794 L0,18.9514706 L0.0110987654,19.0205882 L0.311839506,19.1180147 C2.58601235,19.8470588 4.61565432,20.1830882 6.3785679,20.2889706 L6.3785679,18.9349265 C6.37928395,15.9650735 8.31046914,13.4514706 10.9516173,12.6444853 L10.9516173,12.6444853 Z" id="Shape"/>
      </g>
    </g>
  </g>
</svg>