<?xml version="1.0" encoding="utf-8"?>
<svg width="24px" height="24px" viewBox="0 0 24 24" version="1.1" xmlns="http://www.w3.org/2000/svg">
  <title>newspaper</title>
  <desc>Created with Sketch.</desc>
  <g id="Page-1" stroke="none" stroke-width="1" fill="none" fill-rule="evenodd" transform="matrix(0.890614, 0, 0, 0.924097, 0, 0.001311)">
    <g id="Open-zaak-Curaned" transform="translate(-136.000000, -949.000000)" fill="#949FB3">
      <g id="Alert-Copy" transform="translate(125.000000, 937.000000)">
        <g id="Group-2-Copy-2" transform="translate(1.000000, 1.000000)">
          <g id="newspaper" transform="translate(10.000000, 11.000000)">
            <g id="Capa_1">
              <g id="Group">
                <path d="M26.2551724,2.14663576 C25.8711207,2.14663576 25.5568966,2.45656954 25.5568966,2.83537748 L25.5568966,21.1157307 C25.5568966,23.049947 23.9625,24.6168344 22.0073276,24.6168344 L4.94612069,24.6168344 C2.98512931,24.6168344 1.39655172,23.0442075 1.39655172,21.1157307 L1.39655172,1.39475938 L21.8385776,1.39475938 L21.8385776,19.1298587 C21.8385776,19.5086667 22.1528017,19.8186004 22.5368534,19.8186004 C22.9209052,19.8186004 23.2351293,19.5086667 23.2351293,19.1298587 L23.2351293,0.70601766 C23.2351293,0.327209713 22.9209052,0.0172759382 22.5368534,0.0172759382 L0.698275862,0.0172759382 C0.314224138,0.0172759382 0,0.327209713 0,0.70601766 L0,21.1099912 C0,23.8018234 2.21702586,25.9885784 4.94612069,25.9885784 L22.0015086,25.9885784 C24.7306034,25.9885784 26.9476293,23.8018234 26.9476293,21.1099912 L26.9476293,2.83537748 C26.9534483,2.45656954 26.6392241,2.14663576 26.2551724,2.14663576 L26.2551724,2.14663576 Z" id="Shape"/>
                <path d="M19.1618534,5.36650331 C19.5459052,5.36650331 19.8601293,5.05656954 19.8601293,4.67776159 C19.8601293,4.29895364 19.5459052,3.98901987 19.1618534,3.98901987 L3.93943966,3.98901987 C3.55538793,3.98901987 3.24116379,4.29895364 3.24116379,4.67776159 C3.24116379,5.05656954 3.55538793,5.36650331 3.93943966,5.36650331 L19.1618534,5.36650331 L19.1618534,5.36650331 Z" id="Shape"/>
                <path d="M19.1618534,18.027872 L3.93943966,18.027872 C3.55538793,18.027872 3.24116379,18.3378057 3.24116379,18.7166137 C3.24116379,19.0954216 3.55538793,19.4053554 3.93943966,19.4053554 L19.1560345,19.4053554 C19.5400862,19.4053554 19.8543103,19.0954216 19.8543103,18.7166137 C19.8543103,18.3378057 19.5459052,18.027872 19.1618534,18.027872 L19.1618534,18.027872 Z" id="Shape"/>
                <path d="M19.1618534,21.5576733 L6.35431034,21.5576733 C5.97025862,21.5576733 5.65603448,21.8676071 5.65603448,22.246415 C5.65603448,22.625223 5.97025862,22.9351567 6.35431034,22.9351567 L19.1618534,22.9351567 C19.5459052,22.9351567 19.8601293,22.625223 19.8601293,22.246415 C19.8601293,21.8676071 19.5459052,21.5576733 19.1618534,21.5576733 L19.1618534,21.5576733 Z" id="Shape"/>
                <path d="M3.00840517,7.77135982 L3.00840517,15.2212494 C3.00840517,15.6000574 3.32262931,15.9099912 3.70668103,15.9099912 L11.2887931,15.9099912 C11.6728448,15.9099912 11.987069,15.6000574 11.987069,15.2212494 L11.987069,7.77135982 C11.987069,7.39255188 11.6728448,7.0826181 11.2887931,7.0826181 L3.70668103,7.0826181 C3.32262931,7.0826181 3.00840517,7.39255188 3.00840517,7.77135982 L3.00840517,7.77135982 Z M4.4049569,8.46010155 L10.5905172,8.46010155 L10.5905172,14.5325077 L4.4049569,14.5325077 L4.4049569,8.46010155 L4.4049569,8.46010155 Z" id="Shape"/>
                <path d="M19.5342672,7.77135982 L14.5125,7.77135982 C14.1284483,7.77135982 13.8142241,8.0812936 13.8142241,8.46010155 C13.8142241,8.83890949 14.1284483,9.14884327 14.5125,9.14884327 L19.5342672,9.14884327 C19.918319,9.14884327 20.2325431,8.83890949 20.2325431,8.46010155 C20.2325431,8.0812936 19.9241379,7.77135982 19.5342672,7.77135982 L19.5342672,7.77135982 Z" id="Shape"/>
                <path d="M19.5342672,10.8821766 L14.5125,10.8821766 C14.1284483,10.8821766 13.8142241,11.1921104 13.8142241,11.5709183 C13.8142241,11.9497263 14.1284483,12.25966 14.5125,12.25966 L19.5342672,12.25966 C19.918319,12.25966 20.2325431,11.9497263 20.2325431,11.5709183 C20.2325431,11.1921104 19.9241379,10.8821766 19.5342672,10.8821766 L19.5342672,10.8821766 Z" id="Shape"/>
                <path d="M20.2325431,14.8768786 C20.2325431,14.4980706 19.918319,14.1881369 19.5342672,14.1881369 L14.5125,14.1881369 C14.1284483,14.1881369 13.8142241,14.4980706 13.8142241,14.8768786 C13.8142241,15.2556865 14.1284483,15.5656203 14.5125,15.5656203 L19.5342672,15.5656203 C19.9241379,15.5656203 20.2325431,15.2556865 20.2325431,14.8768786 L20.2325431,14.8768786 Z" id="Shape"/>
              </g>
            </g>
          </g>
        </g>
      </g>
    </g>
  </g>
</svg>