<?xml version="1.0" encoding="utf-8"?>
<svg width="24px" height="24px" viewBox="0 0 24 24" version="1.1" xmlns="http://www.w3.org/2000/svg">
  <title>notification-bell</title>
  <desc>Created with Sketch.</desc>
  <g id="Page-1" stroke="none" stroke-width="1" fill="none" fill-rule="evenodd">
    <g id="Open-zaak-Curaned" transform="translate(-1268.000000, -19.000000)">
      <g id="nav" transform="translate(125.000000, 8.000000)">
        <g id="notification-bell" transform="translate(1143.000000, 11.000000)">
          <g id="Capa_1" fill="#949FB3">
            <g id="Group">
              <g>
                <path d="M 22.593 19.618 C 19.985 18.466 19.884 13.523 19.884 13.398 L 19.884 10.08 C 19.884 6.889 17.889 4.143 15.053 2.974 C 15.048 1.332 13.682 0 12.002 0 C 10.319 0 8.955 1.332 8.948 2.974 C 6.114 4.143 4.116 6.889 4.116 10.08 L 4.116 13.398 C 4.115 13.523 4.017 18.466 1.407 19.618 C 1.111 19.749 0.947 20.066 1.015 20.376 C 1.086 20.689 1.366 20.911 1.694 20.911 L 8.306 20.911 C 8.443 21.639 8.795 22.319 9.332 22.868 C 10.051 23.598 10.999 24 12.002 24 C 13.004 24 13.951 23.598 14.668 22.868 C 15.207 22.319 15.56 21.639 15.696 20.911 L 22.309 20.911 C 22.636 20.911 22.916 20.689 22.984 20.376 C 23.054 20.066 22.891 19.749 22.593 19.618 L 22.593 19.618 Z M 19.158 17.249 C 19.431 18.061 19.82 18.877 20.37 19.558 L 3.63 19.558 C 4.182 18.877 4.571 18.061 4.845 17.249 L 19.158 17.249 L 19.158 17.249 Z M 12.002 1.355 C 12.761 1.355 13.403 1.854 13.605 2.532 C 13.088 2.429 12.551 2.372 12.002 2.372 C 11.452 2.372 10.915 2.429 10.399 2.532 C 10.6 1.854 11.242 1.355 12.002 1.355 L 12.002 1.355 Z M 5.501 13.401 L 5.501 10.08 C 5.501 6.577 8.418 3.726 12.002 3.726 C 15.584 3.726 18.501 6.577 18.501 10.08 L 18.501 13.405 C 18.501 13.508 18.517 14.58 18.792 15.896 L 5.212 15.896 C 5.487 14.578 5.501 13.506 5.501 13.401 L 5.501 13.401 Z M 12.002 22.646 C 10.945 22.646 10.023 21.901 9.726 20.911 L 14.275 20.911 C 13.979 21.901 13.059 22.646 12.002 22.646 L 12.002 22.646 Z" id="Shape"/>
                <path d="M 11.971 4.665 C 9.002 4.665 6.585 7.025 6.585 9.929 C 6.585 10.303 6.894 10.604 7.276 10.604 C 7.656 10.604 7.965 10.303 7.965 9.929 C 7.965 7.77 9.764 6.013 11.971 6.013 C 12.355 6.013 12.662 5.711 12.662 5.339 C 12.662 4.966 12.355 4.665 11.971 4.665 L 11.971 4.665 Z" id="Shape"/>
              </g>
            </g>
          </g>
        </g>
      </g>
    </g>
  </g>
</svg>