<?xml version="1.0" encoding="utf-8"?>
<svg width="24px" height="24px" viewBox="0 0 24 24" version="1.1" xmlns="http://www.w3.org/2000/svg">
  <title>Shape</title>
  <desc>Created with Sketch.</desc>
  <g id="Page-1" stroke="none" stroke-width="1" fill="none" fill-rule="evenodd" transform="matrix(0.868784, 0, 0, 0.868784, 0, 0)">
    <g id="Open-zaak-Curaned" transform="translate(-939.000000, -503.000000)" fill="#949FB3">
      <g id="Evenementen-Copy-3" transform="translate(925.000000, 490.000000)">
        <path d="M40.309,14.3155 C38.554,12.5615 35.6995,12.5615 33.9445,14.3155 L15.9135,32.3465 C15.905,32.355 15.9,32.3655 15.8925,32.3745 C15.882,32.3865 15.873,32.3995 15.8635,32.4125 C15.837,32.4495 15.8165,32.489 15.801,32.532 C15.7965,32.545 15.79,32.5565 15.7865,32.5695 C15.785,32.5745 15.782,32.5795 15.7805,32.5845 L14.013,40.0095 C14.005,40.043 14.003,40.077 14.002,40.1105 C14.002,40.117 14,40.123 14,40.1295 C14.0005,40.1865 14.013,40.242 14.0325,40.2955 C14.037,40.308 14.042,40.319 14.0475,40.331 C14.072,40.3845 14.1025,40.436 14.1455,40.479 C14.193,40.5265 14.249,40.563 14.3095,40.588 C14.37,40.613 14.4345,40.6255 14.499,40.6255 C14.5375,40.6255 14.5765,40.621 14.6145,40.612 L22.0395,38.8445 C22.053,38.8415 22.065,38.834 22.078,38.8295 C22.095,38.824 22.111,38.8175 22.1275,38.81 C22.1635,38.7935 22.197,38.773 22.228,38.7485 C22.24,38.739 22.2525,38.732 22.264,38.7215 C22.268,38.7175 22.273,38.7155 22.277,38.7115 L40.3085,20.68 C42.0635,18.925 42.0635,16.07 40.309,14.3155 L40.309,14.3155 Z M39.602,15.0225 C40.846,16.267 40.952,18.221 39.927,19.591 L35.0335,14.6975 C36.404,13.6725 38.358,13.7785 39.602,15.0225 L39.602,15.0225 Z M37.127,22.4475 L32.177,17.4975 L32.884,16.7905 L37.834,21.7405 L37.127,22.4475 L37.127,22.4475 Z M16.4805,38.144 C16.285,37.9485 15.969,37.9485 15.7735,38.144 L15.395,38.5225 L16.672,33.1585 L18.883,32.913 L18.5985,35.474 C18.5965,35.493 18.6035,35.5105 18.6035,35.529 C18.6035,35.548 18.5965,35.565 18.5985,35.584 C18.6005,35.6005 18.609,35.614 18.6125,35.63 C18.6185,35.659 18.627,35.6855 18.6375,35.7125 C18.6505,35.745 18.666,35.7745 18.685,35.803 C18.7005,35.826 18.716,35.8465 18.735,35.8665 C18.759,35.892 18.785,35.9135 18.8135,35.9335 C18.836,35.949 18.8575,35.9635 18.8825,35.9755 C18.9155,35.991 18.95,36 18.986,36.0085 C19.005,36.013 19.0205,36.0235 19.04,36.026 C19.058,36.028 19.076,36.029 19.0945,36.029 L19.095,36.029 L19.0955,36.029 L19.096,36.029 L19.0965,36.029 C19.1145,36.029 19.133,36.028 19.151,36.026 L21.712,35.7415 L21.4665,37.9525 L16.102,39.2295 L16.4805,38.851 C16.6755,38.656 16.6755,38.3395 16.4805,38.144 L16.4805,38.144 Z M22.7555,35.4045 L33.9445,24.215 C34.14,24.0195 34.14,23.7035 33.9445,23.508 C33.749,23.3125 33.433,23.3125 33.2375,23.508 L22.0485,34.6975 L19.662,34.9625 L19.927,32.576 L31.117,21.387 C31.3125,21.1915 31.3125,20.8755 31.117,20.68 C30.9215,20.4845 30.6055,20.4845 30.41,20.68 L19.22,31.869 L17.6285,32.046 L31.47,18.2045 L36.42,23.1545 L22.5785,36.996 L22.7555,35.4045 L22.7555,35.4045 Z M38.541,21.0335 L33.591,16.0835 L34.2985,15.376 L39.2485,20.326 L38.541,21.0335 L38.541,21.0335 Z" id="Shape"/>
      </g>
    </g>
  </g>
</svg>